<svg xmlns="http://www.w3.org/2000/svg" width="22" height="22" viewBox="0 0 22 22"><g transform="translate(-1208 -4311)"><rect width="22" height="22" rx="5" transform="translate(1208 4311)" fill="#060606"/><g transform="translate(21 -62)"><path d="M8.81.219a.458.458,0,0,1,.565,0l7.6,5.879a.5.5,0,0,1-.282.9H1.5a.5.5,0,0,1-.282-.9Z" transform="translate(1189 4377)" fill="#fff"/><rect width="12" height="8" rx="0.5" transform="translate(1192 4382)" fill="#fff"/><path d="M2,0A2,2,0,0,1,4,2V5H0V2A2,2,0,0,1,2,0Z" transform="translate(1196.093 4385)"/></g></g></svg>